HIERARCHY
ROOT Hips
{
	OFFSET	0.00	0.00	0.00
	CHANNELS 6 Xposition Yposition Zposition Zrotation Xrotation Yrotation
	JOINT LeftUpLeg
	{
		OFFSET	 0.126116	-0.014019	-0.065224
		CHANNELS 3 Zrotation Xrotation Yrotation
		JOINT LeftLeg
		{
			OFFSET	 0.000000	 0.000000	 0.569914
			CHANNELS 3 Zrotation Xrotation Yrotation
			JOINT LeftFoot
			{
				OFFSET	 0.000000	 0.000000	 0.544423
				CHANNELS 3 Zrotation Xrotation Yrotation
				JOINT LeftToeBase
				{
					OFFSET	 0.000000	 0.000000	 0.207117
					CHANNELS 3 Zrotation Xrotation Yrotation
					End Site
					{
						OFFSET	 0.000000	 0.000000	 0.207117
					}
				}
			}
		}
	}
	JOINT RightUpLeg
	{
		OFFSET	-0.124023	-0.008373	-0.065224
		CHANNELS 3 Zrotation Xrotation Yrotation
		JOINT RightLeg
		{
			OFFSET	 0.000000	 0.000000	 0.570047
			CHANNELS 3 Zrotation Xrotation Yrotation
			JOINT RightFoot
			{
				OFFSET	 0.000000	 0.000000	 0.544354
				CHANNELS 3 Zrotation Xrotation Yrotation
				JOINT RightToeBase
				{
					OFFSET	 0.000000	 0.000000	 0.207540
					CHANNELS 3 Zrotation Xrotation Yrotation
					End Site
					{
						OFFSET	 0.000000	 0.000000	 0.207540
					}
				}
			}
		}
	}
	JOINT Spine
	{
		OFFSET	 0.000184	-0.007763	 0.117403
		CHANNELS 3 Zrotation Xrotation Yrotation
		JOINT Spine1
		{
			OFFSET	 0.000000	 0.000000	 0.137269
			CHANNELS 3 Zrotation Xrotation Yrotation
			JOINT Spine2
			{
				OFFSET	 0.000000	 0.000000	 0.156879
				CHANNELS 3 Zrotation Xrotation Yrotation
				JOINT LeftShoulder
				{
					OFFSET	 0.080501	-0.002496	 0.160144
					CHANNELS 3 Zrotation Xrotation Yrotation
					JOINT LeftArm
					{
						OFFSET	 0.000000	 0.000000	 0.164363
						CHANNELS 3 Zrotation Xrotation Yrotation
						JOINT LeftForeArm
						{
							OFFSET	 0.000000	 0.000000	 0.364576
							CHANNELS 3 Zrotation Xrotation Yrotation
							JOINT LeftHand
							{
								OFFSET	 0.000000	 0.000000	 0.360812
								CHANNELS 3 Zrotation Xrotation Yrotation
								JOINT LeftHandIndex1
								{
									OFFSET	 0.000000	 0.000000	 0.086006
									CHANNELS 3 Zrotation Xrotation Yrotation
									JOINT LeftHandIndex2
									{
										OFFSET	 0.000000	 0.000000	 0.047236
										CHANNELS 3 Zrotation Xrotation Yrotation
										JOINT LeftHandIndex3
										{
											OFFSET	-0.004284	-0.000551	 0.038166
											CHANNELS 3 Zrotation Xrotation Yrotation
											End Site
											{
												OFFSET	-0.004284	-0.000551	 0.038166
											}
										}
									}
								}
							}
						}
					}
				}
				JOINT Neck
				{
					OFFSET	 0.000000	 0.000000	 0.176489
					CHANNELS 3 Zrotation Xrotation Yrotation
					JOINT Head
					{
						OFFSET	 0.000000	-0.001747	 0.077940
						CHANNELS 3 Zrotation Xrotation Yrotation
						End Site
						{
							OFFSET	 0.000000	-0.001747	 0.077940
						}
					}
				}
				JOINT RightShoulder
				{
					OFFSET	-0.080363	 0.000306	 0.159706
					CHANNELS 3 Zrotation Xrotation Yrotation
					JOINT RightArm
					{
						OFFSET	 0.000000	 0.000000	 0.164196
						CHANNELS 3 Zrotation Xrotation Yrotation
						JOINT RightForeArm
						{
							OFFSET	 0.000000	 0.000000	 0.365611
							CHANNELS 3 Zrotation Xrotation Yrotation
							JOINT RightHand
							{
								OFFSET	 0.000000	 0.000000	 0.360648
								CHANNELS 3 Zrotation Xrotation Yrotation
								JOINT RightHandIndex1
								{
									OFFSET	 0.000000	 0.000000	 0.069977
									CHANNELS 3 Zrotation Xrotation Yrotation
									JOINT RightHandIndex2
									{
										OFFSET	 0.000000	 0.000000	 0.052305
										CHANNELS 3 Zrotation Xrotation Yrotation
										JOINT RightHandIndex3
										{
											OFFSET	 0.009002	-0.000782	 0.042196
											CHANNELS 3 Zrotation Xrotation Yrotation
											End Site
											{
												OFFSET	 0.009002	-0.000782	 0.042196
											}
										}
									}
								}
							}
						}
					}
				}
			}
		}
	}
}
MOTION
Frames:    12
Frame Time: 0.03333334
 0.014978	-0.815786	 1.217110	-1.824345	 8.048794	 1.747185	 4.532116	-22.171050	 174.159800	-1.684000	-40.257740	-0.221119	 0.149667	 84.714100	-0.647332	-2.385738	 28.474780	-0.000469	-2.465433	-23.058340	-178.761500	-0.111543	-41.090320	 0.019324	-0.310077	 85.626550	 0.577372	 2.407686	 17.509270	-0.222125	 7.162416	 7.716196	-0.828713	 12.421440	 4.910021	-2.543477	 15.110680	 2.982377	 0.610408	-115.680400	 89.396720	-153.537900	 56.002310	 59.704120	-78.101000	-3.650940	-4.334615	-20.971910	 5.374683	-12.715840	-5.468379	-3.812334	 37.924440	-2.927599	-2.450526	 36.184240	 0.754587	-1.378229	 35.397820	-2.634230	 0.454756	 2.610140	-0.619847	 4.459559	 6.570561	-0.916866	 94.718670	 86.902370	 171.573200	-53.454800	 70.084110	 71.776430	-3.210007	-12.973210	 25.914590	-22.160840	-13.602020	 9.848311	 6.437017	 35.671460	-0.771858	 2.830251	 35.756010	-7.813440	-2.350882	 35.473990	 5.254307
 0.016081	-0.813682	 1.214252	-1.884946	 8.034217	 1.829870	 4.517053	-22.889210	 174.063500	-1.788019	-41.313660	-0.320101	 0.213736	 85.041650	-0.802978	-2.385195	 28.594480	-0.003064	-2.424937	-23.616360	-178.738700	-0.061797	-41.959500	 0.100080	-0.698824	 85.900930	 1.054899	 2.407643	 17.982480	-0.212867	 7.089020	 7.775351	-0.927330	 12.286760	 4.575207	-2.553308	 14.944320	 2.553047	 0.659887	-115.066900	 89.367890	-154.086800	 55.375580	 58.424940	-77.567250	-3.641674	-4.016542	-21.870760	 4.173286	-12.795740	-5.479325	-3.812334	 37.924440	-2.927599	-2.450526	 36.184240	 0.754587	-1.378229	 35.397820	-2.634230	 0.427440	 2.328198	-0.571030	 4.403870	 6.480225	-1.005403	 94.738720	 86.882720	 171.508800	-53.002710	 69.102460	 71.848960	-3.277164	-13.004730	 26.658490	-21.609470	-13.691320	 9.855865	 6.437017	 35.671460	-0.771858	 2.830251	 35.756010	-7.813440	-2.350882	 35.473990	 5.254307
 0.017383	-0.810325	 1.210291	-2.006847	 8.095814	 1.853140	 4.626168	-23.791320	 174.015700	-1.897919	-42.637000	-0.352167	 0.524223	 85.421960	-1.121135	-2.384915	 28.657430	-0.004427	-2.398464	-24.475520	-178.649800	-0.063258	-43.158320	 0.150428	-1.136377	 86.212040	 1.533084	 2.407525	 18.429230	-0.204107	 7.018540	 7.991935	-0.991772	 12.124420	 4.267411	-2.537520	 14.728970	 2.150188	 0.702274	-113.969200	 89.313290	-155.074800	 54.311200	 57.432230	-77.046910	-3.137972	-4.132539	-23.043680	 4.060944	-12.919650	-5.488198	-3.812334	 37.924440	-2.927599	-2.450526	 36.184240	 0.754587	-1.378229	 35.397820	-2.634230	 0.389946	 1.947228	-0.547979	 4.310788	 6.423781	-0.951293	 94.788000	 86.857320	 171.385200	-52.150980	 67.992520	 71.732270	-3.314452	-13.191300	 27.756110	-21.099250	-13.846480	 9.853278	 6.437017	 35.671460	-0.771858	 2.830251	 35.756010	-7.813440	-2.350882	 35.473990	 5.254307
 0.019110	-0.803812	 1.203710	-2.200337	 8.305400	 1.812361	 4.748915	-25.333480	 174.004800	-2.103176	-44.725980	-0.448557	 0.713141	 86.006640	-1.359129	-2.384100	 28.837250	-0.008324	-2.312027	-26.172890	-178.511400	-0.119051	-45.158900	 0.219290	-1.520554	 86.684890	 1.951956	 2.407058	 19.340060	-0.186168	 6.881134	 8.452693	-1.046923	 11.877460	 3.843999	-2.483768	 14.462640	 1.613395	 0.757414	-112.633400	 89.235110	-156.250500	 52.637160	 56.365810	-76.616260	-3.250218	-4.231718	-25.183970	 3.629551	-13.134440	-5.501251	-3.812334	 37.924440	-2.927599	-2.450526	 36.184240	 0.754587	-1.378229	 35.397820	-2.634230	 0.380353	 1.364114	-0.555210	 4.226191	 6.272925	-0.729075	 94.858390	 86.783380	 171.146200	-50.846150	 66.562090	 71.989180	-3.086454	-13.542600	 29.422890	-20.506980	-14.081700	 9.872767	 6.437017	 35.671460	-0.771858	 2.830251	 35.756010	-7.813440	-2.350882	 35.473990	 5.254307
 0.020927	-0.795374	 1.196319	-2.442182	 8.681483	 1.682069	 4.814613	-27.325530	 174.105500	-2.410440	-47.111650	-0.652992	 1.199017	 86.671980	-1.986904	-2.382896	 29.093940	-0.013914	-2.209404	-28.219090	-178.433900	-0.139821	-47.515010	 0.326695	-2.308877	 87.221590	 2.803673	 2.406240	 20.293470	-0.167274	 6.760333	 9.160091	-1.076434	 11.655010	 3.389413	-2.393028	 14.237280	 1.025836	 0.818664	-112.064500	 89.157680	-156.588700	 50.863160	 55.505620	-76.240860	-3.762201	-4.292232	-27.734610	 3.084210	-13.383700	-5.513072	-3.812334	 37.924440	-2.927599	-2.450526	 36.184240	 0.754587	-1.378229	 35.397820	-2.634230	 0.432264	 0.633182	-0.620860	 4.172982	 6.015320	-0.332474	 94.900940	 86.651800	 170.855300	-49.270260	 65.329150	 72.290530	-2.550746	-13.899990	 31.122090	-19.972260	-14.361530	 9.875881	 6.437017	 35.671460	-0.771858	 2.830251	 35.756010	-7.813440	-2.350882	 35.473990	 5.254307
 0.022491	-0.783019	 1.185983	-2.799272	 9.176411	 1.718556	 4.783307	-30.242710	 173.896400	-2.829858	-50.486330	-1.033857	 2.008851	 87.626950	-3.032089	-2.381062	 29.475880	-0.022267	-2.084780	-31.094730	-178.362200	 0.036102	-50.885470	 0.622899	-3.686992	 87.989290	 4.369729	 2.404858	 21.400850	-0.145151	 6.665588	 10.310210	-1.227974	 11.424480	 2.756469	-2.398576	 13.969670	 0.170812	 0.907488	-112.168300	 89.076770	-156.146500	 48.575660	 54.711270	-75.740340	-4.613185	-4.341243	-30.860490	 2.489019	-13.748820	-5.522631	-3.812334	 37.924440	-2.927599	-2.450526	 36.184240	 0.754587	-1.378229	 35.397820	-2.634230	 0.536729	-0.314100	-0.753587	 4.113029	 5.365809	 0.249305	 94.820500	 86.423250	 170.611600	-46.931880	 63.849270	 72.198160	-1.838606	-14.277140	 33.198560	-19.294760	-14.713580	 9.904249	 6.437017	 35.671460	-0.771858	 2.830251	 35.756010	-7.813440	-2.350882	 35.473990	 5.254307
 0.024036	-0.767456	 1.172577	-3.192954	 9.905439	 1.841741	 4.606630	-34.121230	 173.527900	-3.594236	-54.857120	-1.814618	 6.397513	 88.829140	-7.853986	-2.379107	 29.865150	-0.030827	-2.017805	-35.062860	-178.342900	 0.189622	-55.064530	 0.888601	-9.814820	 89.000250	 10.611030	 2.402842	 22.596250	-0.121053	 6.557682	 11.643840	-1.437120	 11.180840	 2.053025	-2.474326	 13.696530	-0.858285	 1.012569	-112.821900	 89.016430	-155.132300	 46.234440	 54.405780	-74.936410	-6.303240	-4.004745	-33.920710	 1.321325	-14.197970	-5.534570	-3.812334	 37.924440	-2.927599	-2.450526	 36.184240	 0.754587	-1.378229	 35.397820	-2.634230	 0.693707	-1.398048	-0.957315	 4.081421	 4.458093	 0.998693	 94.642290	 86.147960	 170.464800	-44.079060	 62.505320	 71.371050	-1.013785	-14.566080	 35.217130	-18.588460	-15.166460	 9.915541	 6.437017	 35.671460	-0.771858	 2.830251	 35.756010	-7.813440	-2.350882	 35.473990	 5.254307
 0.025625	-0.753167	 1.158654	-3.611924	 10.868980	 1.961755	 4.319572	-38.080460	 173.134500	-4.704287	-59.052360	-2.985606	 80.721550	 89.876460	-82.688290	-2.377017	 30.266560	-0.039701	-1.924568	-39.109920	-178.308400	 0.422122	-59.086320	 1.238384	-111.835100	 89.840520	 112.746100	 2.401068	 23.444000	-0.103804	 6.481714	 12.725690	-1.579028	 10.970080	 1.441536	-2.515910	 13.435850	-1.754859	 1.098113	-113.667500	 88.979320	-153.980000	 44.671060	 54.692840	-73.968260	-7.958019	-3.547828	-35.997720	 0.231022	-14.648590	-5.546345	-3.812334	 37.924440	-2.927599	-2.450526	 36.184240	 0.754587	-1.378229	 35.397820	-2.634230	 0.850843	-2.315341	-1.195505	 4.036780	 3.674135	 1.725340	 94.450870	 85.912850	 170.421400	-42.141340	 62.305320	 70.298050	-0.107990	-14.725210	 36.346810	-18.187450	-15.598250	 9.942164	 6.437017	 35.671460	-0.771858	 2.830251	 35.756010	-7.813440	-2.350882	 35.473990	 5.254307
 0.027332	-0.738314	 1.141293	-4.264046	 11.980960	 2.164988	 4.012527	-42.412640	 172.700000	-6.410133	-63.687630	-4.746308	 172.844800	 88.784530	-175.378800	-2.373438	 30.920740	-0.054285	-1.656253	-43.615870	-178.306200	 0.819745	-63.620060	 1.881918	-173.227500	 88.797650	 174.336900	 2.398676	 24.414710	-0.083873	 6.497476	 13.886880	-1.638044	 10.792920	 0.845939	-2.529901	 13.099090	-2.742526	 1.182987	-114.748200	 88.953020	-152.588100	 43.516040	 55.516550	-72.090190	-9.183429	-3.243623	-37.191480	-0.444384	-15.169650	-5.561222	-3.812334	 37.924440	-2.927599	-2.450526	 36.184240	 0.754587	-1.378229	 35.397820	-2.634230	 1.021357	-3.310737	-1.474091	 3.940434	 2.882609	 2.368364	 94.228960	 85.697850	 170.489000	-40.555570	 63.002750	 68.266510	 0.963782	-14.649720	 36.830100	-17.746320	-16.115920	 9.971015	 6.437017	 35.671460	-0.771858	 2.830251	 35.756010	-7.813440	-2.350882	 35.473990	 5.254307
 0.029281	-0.722416	 1.117836	-4.895804	 13.367890	 2.291680	 3.438751	-47.471630	 172.099000	-9.586036	-68.923640	-8.100913	 175.186100	 87.497200	-178.508000	-2.368062	 31.835410	-0.074928	-1.330765	-48.821400	-178.257400	 1.950321	-68.840610	 3.274349	-177.042300	 87.498690	 178.500600	 2.395845	 25.398740	-0.063471	 6.404297	 15.158150	-1.557674	 10.487960	 0.211442	-2.532332	 12.681780	-3.877541	 1.270171	-115.978100	 88.940010	-151.078500	 43.215060	 56.913500	-69.758370	-9.989956	-3.059026	-36.742730	-0.779285	-15.832920	-5.579347	-3.812334	 37.924440	-2.927599	-2.450526	 36.184240	 0.754587	-1.378229	 35.397820	-2.634230	 1.191805	-4.390537	-1.748652	 3.889096	 1.959151	 3.031292	 94.010280	 85.470650	 170.543900	-39.713790	 64.538990	 65.342330	 1.619126	-14.386190	 36.187230	-17.535010	-16.772910	 10.001460	 6.437017	 35.671460	-0.771858	 2.830251	 35.756010	-7.813440	-2.350882	 35.473990	 5.254307
 0.030995	-0.710054	 1.095128	-5.239949	 14.760000	 2.360656	 2.728419	-52.003320	 171.657200	-13.883500	-73.319310	-12.698620	 175.373300	 86.545490	-179.375600	-2.363828	 32.507430	-0.090291	-1.037637	-53.418170	-178.150700	 4.124918	-73.296350	 5.649446	-177.784700	 86.336760	 179.695300	 2.392395	 26.442060	-0.041585	 6.210195	 16.090530	-1.474905	 10.115240	-0.377348	-2.506985	 12.263400	-4.910084	 1.337978	-116.980200	 88.941860	-149.906500	 44.162290	 58.264720	-67.765910	-9.544031	-3.261571	-35.025580	-0.344220	-16.448310	-5.597388	-3.812334	 37.924440	-2.927599	-2.450526	 36.184240	 0.754587	-1.378229	 35.397820	-2.634230	 1.305164	-5.181508	-1.863479	 3.877863	 0.952232	 3.476644	 93.854550	 85.285990	 170.550300	-39.717600	 66.253460	 62.057750	 1.167211	-14.265730	 34.769640	-17.942670	-17.402850	 10.029040	 6.437017	 35.671460	-0.771858	 2.830251	 35.756010	-7.813440	-2.350882	 35.473990	 5.254307
 0.032492	-0.699171	 1.081772	-5.563954	 16.387660	 2.424184	 1.926876	-56.322260	 171.159200	-19.379930	-76.637210	-18.498750	 174.949000	 85.924030	-179.513700	-2.360103	 33.069570	-0.103271	-0.688832	-57.733570	-178.013900	 6.698785	-76.809870	 8.450583	-177.393100	 85.501550	 179.622500	 2.391440	 26.708990	-0.035942	 5.958974	 16.972620	-1.353887	 9.662728	-1.042402	-2.443120	 11.765970	-6.007413	 1.395425	-118.097000	 88.945560	-148.611300	 46.315950	 59.841300	-65.711940	-8.980750	-3.100339	-32.324290	-0.426170	-17.199880	-5.617824	-3.812334	 37.924440	-2.927599	-2.450526	 36.184240	 0.754587	-1.378229	 35.397820	-2.634230	 1.421812	-6.174207	-2.061149	 3.857690	 0.063661	 4.115126	 93.748310	 85.120540	 170.484000	-40.238230	 68.228410	 58.103150	 0.207748	-13.897210	 32.710610	-18.331280	-18.115290	 10.079800	 6.437017	 35.671460	-0.771858	 2.830251	 35.756010	-7.813440	-2.350882	 35.473990	 5.254307
